<?xml version="1.0" encoding="UTF-8" standalone="no"?>
<!-- Uploaded to: SVG Repo, www.svgrepo.com, Generator: SVG Repo Mixer Tools -->

<svg
   width="800px"
   height="800px"
   viewBox="0 0 32 32"
   fill="none"
   version="1.1"
   id="svg14"
   sodipodi:docname="instagram.svg"
   inkscape:version="1.3.2 (091e20e, 2023-11-25, custom)"
   xmlns:inkscape="http://www.inkscape.org/namespaces/inkscape"
   xmlns:sodipodi="http://sodipodi.sourceforge.net/DTD/sodipodi-0.dtd"
   xmlns="http://www.w3.org/2000/svg"
   xmlns:svg="http://www.w3.org/2000/svg">
  <sodipodi:namedview
     id="namedview14"
     pagecolor="#ffffff"
     bordercolor="#000000"
     borderopacity="0.25"
     inkscape:showpageshadow="2"
     inkscape:pageopacity="0.0"
     inkscape:pagecheckerboard="0"
     inkscape:deskcolor="#d1d1d1"
     inkscape:zoom="1.01625"
     inkscape:cx="400"
     inkscape:cy="400"
     inkscape:window-width="1920"
     inkscape:window-height="1017"
     inkscape:window-x="-8"
     inkscape:window-y="-8"
     inkscape:window-maximized="1"
     inkscape:current-layer="svg14" />
  <rect
     x="0.07134071"
     y="0.071340702"
     width="31.857319"
     height="31.857319"
     rx="6.8265681"
     fill="url(#paint0_radial_87_7153)"
     id="rect1"
     style="fill:url(#paint0_radial_87_7153);stroke-width:1.13777" />
  <rect
     x="0.07134071"
     y="0.071340702"
     width="31.857319"
     height="31.857319"
     rx="6.8265681"
     fill="url(#paint1_radial_87_7153)"
     id="rect2"
     style="fill:url(#paint1_radial_87_7153);stroke-width:1.13777" />
  <rect
     x="0.07134071"
     y="0.071340702"
     width="31.857319"
     height="31.857319"
     rx="6.8265681"
     fill="url(#paint2_radial_87_7153)"
     id="rect3"
     style="fill:url(#paint2_radial_87_7153);stroke-width:1.13777" />
  <path
     d="m 23.964329,9.7423124 c 0,0.9425216 -0.76412,1.7066426 -1.706641,1.7066426 -0.942522,0 -1.706643,-0.764121 -1.706643,-1.7066426 0,-0.9425558 0.764121,-1.7066421 1.706643,-1.7066421 0.942521,0 1.706641,0.7640863 1.706641,1.7066421 z"
     fill="#ffffff"
     id="path3"
     style="stroke-width:1.13777" />
  <path
     fill-rule="evenodd"
     clip-rule="evenodd"
     d="m 16,21.688806 c 3.141814,0 5.688808,-2.546991 5.688808,-5.688806 0,-3.141815 -2.546994,-5.688807 -5.688808,-5.688807 -3.141815,0 -5.688806,2.546992 -5.688806,5.688807 0,3.141815 2.546991,5.688806 5.688806,5.688806 z m 0,-2.275522 c 1.885157,0 3.413283,-1.528127 3.413283,-3.413284 0,-1.885157 -1.528126,-3.413283 -3.413283,-3.413283 -1.885157,0 -3.413284,1.528126 -3.413284,3.413283 0,1.885157 1.528127,3.413284 3.413284,3.413284 z"
     fill="#ffffff"
     id="path4"
     style="stroke-width:1.13777" />
  <path
     fill-rule="evenodd"
     clip-rule="evenodd"
     d="m 4.6223862,15.544896 c 0,-3.823219 0,-5.7348869 0.7440505,-7.1951352 C 6.0209225,7.0652509 7.0652509,6.0209224 8.3497608,5.3664366 9.8100093,4.6223863 11.721676,4.6223863 15.544896,4.6223863 h 0.910208 c 3.823219,0 5.734887,0 7.19509,0.7440503 1.284533,0.6544858 2.328884,1.6988143 2.983323,2.9833242 0.744096,1.4602483 0.744096,3.3719162 0.744096,7.1951352 v 0.910208 c 0,3.82322 0,5.734887 -0.744096,7.195089 -0.654439,1.284534 -1.69879,2.328883 -2.983323,2.983325 -1.460203,0.744095 -3.371871,0.744095 -7.19509,0.744095 h -0.910208 c -3.82322,0 -5.7348867,0 -7.1951352,-0.744095 C 7.0652509,25.979076 6.0209225,24.934727 5.3664367,23.650193 4.6223862,22.189991 4.6223862,20.278324 4.6223862,16.455104 Z M 15.544896,6.8979089 h 0.910208 c 1.949213,0 3.274137,0.00178 4.29835,0.085446 0.997702,0.08151 1.507875,0.2292477 1.863766,0.410584 0.85628,0.4363315 1.552475,1.1325505 1.988807,1.9888411 0.181359,0.3558918 0.329154,0.866064 0.410617,1.863766 0.08362,1.024212 0.08545,2.349136 0.08545,4.298349 v 0.910208 c 0,1.949212 -0.0018,3.274136 -0.08545,4.29835 -0.08146,0.997703 -0.229258,1.507874 -0.410617,1.863768 -0.436332,0.856276 -1.132527,1.552475 -1.988807,1.988806 -0.355891,0.181359 -0.866064,0.329153 -1.863766,0.410618 -1.024213,0.08362 -2.349137,0.08545 -4.29835,0.08545 h -0.910208 c -1.949212,0 -3.274136,-0.0018 -4.298349,-0.08545 C 10.248844,24.935182 9.7386724,24.787386 9.3827798,24.606027 8.5264892,24.169696 7.8302703,23.473498 7.3939388,22.617221 7.2126023,22.261328 7.064864,21.751156 6.9833548,20.753453 6.8996835,19.72924 6.8979093,18.404316 6.8979093,16.455104 v -0.910208 c 0,-1.949213 0.00178,-3.274137 0.085446,-4.29835 C 7.064864,10.248844 7.2126023,9.7386716 7.3939388,9.3827798 7.8302703,8.5264893 8.5264892,7.8302703 9.3827798,7.3939387 9.7386724,7.2126024 10.248844,7.0648642 11.246547,6.9833548 c 1.024213,-0.083671 2.349137,-0.085446 4.298349,-0.085446 z"
     fill="#ffffff"
     id="path5"
     style="stroke-width:1.13777" />
  <defs
     id="defs14">
    <radialGradient
       id="paint0_radial_87_7153"
       cx="0"
       cy="0"
       r="1"
       gradientUnits="userSpaceOnUse"
       gradientTransform="matrix(16.497556,-23.892974,23.892974,16.497556,11.448954,23.964328)">
      <stop
         stop-color="#B13589"
         id="stop5" />
      <stop
         offset="0.79309"
         stop-color="#C62F94"
         id="stop6" />
      <stop
         offset="1"
         stop-color="#8A3AC8"
         id="stop7" />
    </radialGradient>
    <radialGradient
       id="paint1_radial_87_7153"
       cx="0"
       cy="0"
       r="1"
       gradientUnits="userSpaceOnUse"
       gradientTransform="matrix(10.808711,-23.324057,23.324057,10.808711,10.311192,33.066419)">
      <stop
         stop-color="#E0E8B7"
         id="stop8" />
      <stop
         offset="0.444662"
         stop-color="#FB8A2E"
         id="stop9" />
      <stop
         offset="0.71474"
         stop-color="#E2425C"
         id="stop10" />
      <stop
         offset="1"
         stop-color="#E2425C"
         stop-opacity="0"
         id="stop11" />
    </radialGradient>
    <radialGradient
       id="paint2_radial_87_7153"
       cx="0"
       cy="0"
       r="1"
       gradientUnits="userSpaceOnUse"
       gradientTransform="matrix(43.80384,-6.2576897,1.3384549,9.3691872,-1.635299,1.209102)">
      <stop
         offset="0.156701"
         stop-color="#406ADC"
         id="stop12" />
      <stop
         offset="0.467799"
         stop-color="#6A45BE"
         id="stop13" />
      <stop
         offset="1"
         stop-color="#6A45BE"
         stop-opacity="0"
         id="stop14" />
    </radialGradient>
  </defs>
</svg>
